<svg xmlns="http://www.w3.org/2000/svg" xmlns:xlink="http://www.w3.org/1999/xlink" width="500" zoomAndPan="magnify" viewBox="0 0 375 374.999991" height="500" preserveAspectRatio="xMidYMid meet" version="1.0"><defs><g/></defs><rect x="-37.5" width="450" fill="#ffffff" y="-37.499999" height="449.999989" fill-opacity="1"/><rect x="-37.5" width="450" fill="#f1efe7" y="-37.499999" height="449.999989" fill-opacity="1"/><g fill="#000000" fill-opacity="1"><g transform="translate(59.64539, 196.14572)"><g><path d="M 4.234375 0 L 4.234375 -36.171875 L 16.703125 -36.171875 L 16.703125 -32.359375 L 16.84375 -32.359375 C 20.09375 -35.597656 23.550781 -37.21875 27.21875 -37.21875 C 29 -37.21875 30.769531 -36.984375 32.53125 -36.515625 C 34.289062 -36.046875 35.984375 -35.316406 37.609375 -34.328125 C 39.234375 -33.347656 40.550781 -31.953125 41.5625 -30.140625 C 42.570312 -28.328125 43.078125 -26.222656 43.078125 -23.828125 L 43.078125 0 L 30.59375 0 L 30.59375 -20.4375 C 30.59375 -22.320312 29.992188 -23.96875 28.796875 -25.375 C 27.597656 -26.789062 26.035156 -27.5 24.109375 -27.5 C 22.234375 -27.5 20.53125 -26.769531 19 -25.3125 C 17.46875 -23.851562 16.703125 -22.226562 16.703125 -20.4375 L 16.703125 0 Z M 4.234375 0 "/></g></g></g><g fill="#000000" fill-opacity="1"><g transform="translate(99.604746, 196.14572)"><g><path d="M 7.640625 -4.296875 C 3.628906 -7.867188 1.625 -12.453125 1.625 -18.046875 C 1.625 -23.640625 3.710938 -28.234375 7.890625 -31.828125 C 12.078125 -35.421875 17.25 -37.21875 23.40625 -37.21875 C 29.46875 -37.21875 34.578125 -35.40625 38.734375 -31.78125 C 42.898438 -28.164062 44.984375 -23.585938 44.984375 -18.046875 C 44.984375 -12.503906 42.945312 -7.929688 38.875 -4.328125 C 34.8125 -0.734375 29.65625 1.0625 23.40625 1.0625 C 16.914062 1.0625 11.660156 -0.722656 7.640625 -4.296875 Z M 17.296875 -24.171875 C 15.679688 -22.578125 14.875 -20.535156 14.875 -18.046875 C 14.875 -15.554688 15.648438 -13.523438 17.203125 -11.953125 C 18.753906 -10.378906 20.796875 -9.59375 23.328125 -9.59375 C 25.773438 -9.59375 27.785156 -10.390625 29.359375 -11.984375 C 30.929688 -13.578125 31.71875 -15.597656 31.71875 -18.046875 C 31.71875 -20.535156 30.90625 -22.578125 29.28125 -24.171875 C 27.664062 -25.773438 25.679688 -26.578125 23.328125 -26.578125 C 20.929688 -26.578125 18.921875 -25.773438 17.296875 -24.171875 Z M 17.296875 -24.171875 "/></g></g></g><g fill="#000000" fill-opacity="1"><g transform="translate(139.564101, 196.14572)"><g><path d="M 6.34375 -36.171875 L 6.34375 -49.625 L 18.828125 -49.625 L 18.828125 -36.171875 L 26.4375 -36.171875 L 26.4375 -26.65625 L 18.828125 -26.65625 L 18.828125 -15.15625 C 18.828125 -11.820312 19.765625 -10.15625 21.640625 -10.15625 C 22.109375 -10.15625 22.601562 -10.25 23.125 -10.4375 C 23.644531 -10.625 24.046875 -10.8125 24.328125 -11 L 24.75 -11.28125 L 27.84375 -1.203125 C 25.164062 0.304688 22.113281 1.0625 18.6875 1.0625 C 16.332031 1.0625 14.304688 0.648438 12.609375 -0.171875 C 10.921875 -0.992188 9.640625 -2.097656 8.765625 -3.484375 C 7.898438 -4.867188 7.28125 -6.328125 6.90625 -7.859375 C 6.53125 -9.390625 6.34375 -11.023438 6.34375 -12.765625 L 6.34375 -26.65625 L 1.125 -26.65625 L 1.125 -36.171875 Z M 6.34375 -36.171875 "/></g></g></g><g fill="#000000" fill-opacity="1"><g transform="translate(160.776179, 196.14572)"><g><path d="M 40.8125 -16.359375 L 14.59375 -16.359375 C 14.59375 -13.816406 15.414062 -11.9375 17.0625 -10.71875 C 18.707031 -9.5 20.492188 -8.890625 22.421875 -8.890625 C 24.441406 -8.890625 26.035156 -9.15625 27.203125 -9.6875 C 28.378906 -10.226562 29.722656 -11.300781 31.234375 -12.90625 L 40.25 -8.390625 C 36.488281 -2.085938 30.238281 1.0625 21.5 1.0625 C 16.050781 1.0625 11.375 -0.804688 7.46875 -4.546875 C 3.570312 -8.285156 1.625 -12.785156 1.625 -18.046875 C 1.625 -23.304688 3.570312 -27.816406 7.46875 -31.578125 C 11.375 -35.335938 16.050781 -37.21875 21.5 -37.21875 C 27.238281 -37.21875 31.90625 -35.5625 35.5 -32.25 C 39.09375 -28.9375 40.890625 -24.203125 40.890625 -18.046875 C 40.890625 -17.203125 40.863281 -16.640625 40.8125 -16.359375 Z M 14.953125 -23.265625 L 28.6875 -23.265625 C 28.40625 -25.140625 27.664062 -26.582031 26.46875 -27.59375 C 25.269531 -28.601562 23.734375 -29.109375 21.859375 -29.109375 C 19.785156 -29.109375 18.140625 -28.566406 16.921875 -27.484375 C 15.703125 -26.410156 15.046875 -25.003906 14.953125 -23.265625 Z M 14.953125 -23.265625 "/></g></g></g><g fill="#000000" fill-opacity="1"><g transform="translate(196.647781, 196.14572)"><g/></g></g><g fill="#000000" fill-opacity="1"><g transform="translate(209.261507, 196.14572)"><g><path d="M 2.609375 8.890625 L 12.828125 3.875 C 14.710938 6.976562 17.976562 8.53125 22.625 8.53125 C 24.789062 8.53125 26.800781 7.835938 28.65625 6.453125 C 30.507812 5.066406 31.4375 2.941406 31.4375 0.078125 L 31.4375 -2.609375 C 29.226562 -0.160156 25.28125 1.0625 19.59375 1.0625 C 14.382812 1.0625 10.085938 -0.78125 6.703125 -4.46875 C 3.316406 -8.164062 1.625 -12.691406 1.625 -18.046875 C 1.625 -23.398438 3.316406 -27.929688 6.703125 -31.640625 C 10.085938 -35.359375 14.382812 -37.21875 19.59375 -37.21875 C 24.25 -37.21875 28.128906 -35.785156 31.234375 -32.921875 L 31.4375 -32.921875 L 31.4375 -36.171875 L 43.921875 -36.171875 L 43.921875 0.984375 C 43.921875 6.859375 41.96875 11.394531 38.0625 14.59375 C 34.164062 17.789062 29.019531 19.390625 22.625 19.390625 C 12.289062 19.390625 5.617188 15.890625 2.609375 8.890625 Z M 17.296875 -24.171875 C 15.679688 -22.578125 14.875 -20.535156 14.875 -18.046875 C 14.875 -15.554688 15.648438 -13.523438 17.203125 -11.953125 C 18.753906 -10.378906 20.796875 -9.59375 23.328125 -9.59375 C 25.773438 -9.59375 27.785156 -10.390625 29.359375 -11.984375 C 30.929688 -13.578125 31.71875 -15.597656 31.71875 -18.046875 C 31.71875 -20.535156 30.90625 -22.578125 29.28125 -24.171875 C 27.664062 -25.773438 25.679688 -26.578125 23.328125 -26.578125 C 20.929688 -26.578125 18.921875 -25.773438 17.296875 -24.171875 Z M 17.296875 -24.171875 "/></g></g></g><g fill="#000000" fill-opacity="1"><g transform="translate(250.771383, 196.14572)"><g><path d="M 7.640625 -4.296875 C 3.628906 -7.867188 1.625 -12.453125 1.625 -18.046875 C 1.625 -23.640625 3.710938 -28.234375 7.890625 -31.828125 C 12.078125 -35.421875 17.25 -37.21875 23.40625 -37.21875 C 29.46875 -37.21875 34.578125 -35.40625 38.734375 -31.78125 C 42.898438 -28.164062 44.984375 -23.585938 44.984375 -18.046875 C 44.984375 -12.503906 42.945312 -7.929688 38.875 -4.328125 C 34.8125 -0.734375 29.65625 1.0625 23.40625 1.0625 C 16.914062 1.0625 11.660156 -0.722656 7.640625 -4.296875 Z M 17.296875 -24.171875 C 15.679688 -22.578125 14.875 -20.535156 14.875 -18.046875 C 14.875 -15.554688 15.648438 -13.523438 17.203125 -11.953125 C 18.753906 -10.378906 20.796875 -9.59375 23.328125 -9.59375 C 25.773438 -9.59375 27.785156 -10.390625 29.359375 -11.984375 C 30.929688 -13.578125 31.71875 -15.597656 31.71875 -18.046875 C 31.71875 -20.535156 30.90625 -22.578125 29.28125 -24.171875 C 27.664062 -25.773438 25.679688 -26.578125 23.328125 -26.578125 C 20.929688 -26.578125 18.921875 -25.773438 17.296875 -24.171875 Z M 17.296875 -24.171875 "/></g></g></g><g fill="#000000" fill-opacity="1"><g transform="translate(290.730746, 196.14572)"><g><path d="M 12.265625 -15.09375 C 14.523438 -15.09375 16.441406 -14.300781 18.015625 -12.71875 C 19.585938 -11.144531 20.375 -9.234375 20.375 -6.984375 C 20.375 -4.773438 19.585938 -2.878906 18.015625 -1.296875 C 16.441406 0.273438 14.523438 1.0625 12.265625 1.0625 C 10.054688 1.0625 8.164062 0.273438 6.59375 -1.296875 C 5.019531 -2.878906 4.234375 -4.773438 4.234375 -6.984375 C 4.234375 -9.234375 5.019531 -11.144531 6.59375 -12.71875 C 8.164062 -14.300781 10.054688 -15.09375 12.265625 -15.09375 Z M 12.265625 -15.09375 "/></g></g></g><g fill="#000000" fill-opacity="1"><g transform="translate(145.755643, 236.200457)"><g><path d="M 9.796875 -9.953125 C 9.992188 -9.941406 10.15625 -9.867188 10.28125 -9.734375 C 10.414062 -9.609375 10.484375 -9.453125 10.484375 -9.265625 L 10.484375 -0.6875 C 10.484375 -0.488281 10.414062 -0.320312 10.28125 -0.1875 C 10.15625 -0.0625 9.992188 0 9.796875 0 C 9.585938 0 9.414062 -0.0625 9.28125 -0.1875 C 9.144531 -0.320312 9.078125 -0.488281 9.078125 -0.6875 L 9.078125 -7.25 L 6.328125 -3.078125 C 6.265625 -2.992188 6.179688 -2.921875 6.078125 -2.859375 C 5.984375 -2.804688 5.882812 -2.785156 5.78125 -2.796875 C 5.675781 -2.785156 5.570312 -2.804688 5.46875 -2.859375 C 5.375 -2.921875 5.296875 -2.992188 5.234375 -3.078125 L 2.46875 -7.375 L 2.46875 -0.6875 C 2.46875 -0.488281 2.40625 -0.320312 2.28125 -0.1875 C 2.164062 -0.0625 2.007812 0 1.8125 0 C 1.625 0 1.46875 -0.0625 1.34375 -0.1875 C 1.226562 -0.320312 1.171875 -0.488281 1.171875 -0.6875 L 1.171875 -9.265625 C 1.171875 -9.441406 1.238281 -9.597656 1.375 -9.734375 C 1.507812 -9.878906 1.675781 -9.953125 1.875 -9.953125 C 1.988281 -9.953125 2.097656 -9.921875 2.203125 -9.859375 C 2.316406 -9.804688 2.40625 -9.734375 2.46875 -9.640625 L 5.828125 -4.546875 L 9.234375 -9.640625 C 9.390625 -9.847656 9.578125 -9.953125 9.796875 -9.953125 Z M 9.796875 -9.953125 "/></g></g></g><g fill="#000000" fill-opacity="1"><g transform="translate(166.661962, 236.200457)"><g><path d="M 2.578125 -0.6875 C 2.578125 -0.488281 2.503906 -0.320312 2.359375 -0.1875 C 2.222656 -0.0625 2.0625 0 1.875 0 C 1.664062 0 1.492188 -0.0625 1.359375 -0.1875 C 1.234375 -0.320312 1.171875 -0.488281 1.171875 -0.6875 L 1.171875 -9.25 C 1.171875 -9.4375 1.238281 -9.597656 1.375 -9.734375 C 1.507812 -9.867188 1.679688 -9.9375 1.890625 -9.9375 C 2.078125 -9.9375 2.238281 -9.867188 2.375 -9.734375 C 2.507812 -9.597656 2.578125 -9.4375 2.578125 -9.25 Z M 2.578125 -0.6875 "/></g></g></g><g fill="#000000" fill-opacity="1"><g transform="translate(179.670287, 236.200457)"><g><path d="M 8.59375 -9.9375 C 8.78125 -9.9375 8.925781 -9.875 9.03125 -9.75 C 9.144531 -9.632812 9.203125 -9.488281 9.203125 -9.3125 L 9.203125 -0.6875 C 9.203125 -0.488281 9.140625 -0.320312 9.015625 -0.1875 C 8.890625 -0.0625 8.726562 0 8.53125 0 C 8.425781 0 8.320312 -0.015625 8.21875 -0.046875 C 8.125 -0.078125 8.046875 -0.128906 7.984375 -0.203125 L 2.40625 -7.46875 L 2.40625 -0.625 C 2.40625 -0.445312 2.347656 -0.296875 2.234375 -0.171875 C 2.117188 -0.0546875 1.96875 0 1.78125 0 C 1.601562 0 1.457031 -0.0546875 1.34375 -0.171875 C 1.226562 -0.296875 1.171875 -0.445312 1.171875 -0.625 L 1.171875 -9.25 C 1.171875 -9.445312 1.234375 -9.609375 1.359375 -9.734375 C 1.492188 -9.867188 1.65625 -9.9375 1.84375 -9.9375 C 1.957031 -9.9375 2.066406 -9.910156 2.171875 -9.859375 C 2.273438 -9.816406 2.351562 -9.757812 2.40625 -9.6875 L 7.96875 -2.40625 L 7.96875 -9.3125 C 7.96875 -9.488281 8.023438 -9.632812 8.140625 -9.75 C 8.265625 -9.875 8.414062 -9.9375 8.59375 -9.9375 Z M 8.59375 -9.9375 "/></g></g></g><g fill="#000000" fill-opacity="1"><g transform="translate(199.300456, 236.200457)"><g><path d="M 8.46875 -5.21875 C 8.65625 -5.21875 8.8125 -5.148438 8.9375 -5.015625 C 9.070312 -4.890625 9.140625 -4.734375 9.140625 -4.546875 L 9.140625 -1.34375 C 9.140625 -1.09375 9.023438 -0.894531 8.796875 -0.75 C 8.359375 -0.46875 7.878906 -0.25 7.359375 -0.09375 C 6.835938 0.0625 6.304688 0.140625 5.765625 0.140625 C 4.816406 0.140625 3.945312 -0.0820312 3.15625 -0.53125 C 2.363281 -0.988281 1.738281 -1.609375 1.28125 -2.390625 C 0.832031 -3.171875 0.609375 -4.03125 0.609375 -4.96875 C 0.609375 -5.90625 0.832031 -6.765625 1.28125 -7.546875 C 1.738281 -8.328125 2.363281 -8.941406 3.15625 -9.390625 C 3.945312 -9.847656 4.816406 -10.078125 5.765625 -10.078125 C 6.234375 -10.078125 6.6875 -10.023438 7.125 -9.921875 C 7.5625 -9.816406 7.957031 -9.660156 8.3125 -9.453125 C 8.425781 -9.378906 8.507812 -9.296875 8.5625 -9.203125 C 8.625 -9.109375 8.65625 -9.003906 8.65625 -8.890625 C 8.65625 -8.703125 8.585938 -8.539062 8.453125 -8.40625 C 8.328125 -8.269531 8.175781 -8.203125 8 -8.203125 C 7.851562 -8.203125 7.734375 -8.234375 7.640625 -8.296875 C 7.015625 -8.578125 6.390625 -8.71875 5.765625 -8.71875 C 5.078125 -8.71875 4.453125 -8.550781 3.890625 -8.21875 C 3.328125 -7.894531 2.882812 -7.441406 2.5625 -6.859375 C 2.238281 -6.285156 2.078125 -5.65625 2.078125 -4.96875 C 2.078125 -4.28125 2.238281 -3.648438 2.5625 -3.078125 C 2.882812 -2.503906 3.328125 -2.046875 3.890625 -1.703125 C 4.453125 -1.367188 5.078125 -1.203125 5.765625 -1.203125 C 6.085938 -1.203125 6.425781 -1.238281 6.78125 -1.3125 C 7.132812 -1.394531 7.4375 -1.5 7.6875 -1.625 L 7.6875 -3.875 L 5.96875 -3.875 C 5.78125 -3.875 5.617188 -3.9375 5.484375 -4.0625 C 5.359375 -4.1875 5.296875 -4.347656 5.296875 -4.546875 C 5.296875 -4.742188 5.359375 -4.90625 5.484375 -5.03125 C 5.617188 -5.15625 5.78125 -5.21875 5.96875 -5.21875 Z M 8.46875 -5.21875 "/></g></g></g><g fill="#000000" fill-opacity="1"><g transform="translate(218.405975, 236.200457)"><g><path d="M 10.203125 -4.96875 C 10.203125 -4.007812 9.992188 -3.140625 9.578125 -2.359375 C 9.171875 -1.585938 8.601562 -0.976562 7.875 -0.53125 C 7.144531 -0.0820312 6.320312 0.140625 5.40625 0.140625 C 4.488281 0.140625 3.664062 -0.0820312 2.9375 -0.53125 C 2.207031 -0.976562 1.632812 -1.585938 1.21875 -2.359375 C 0.8125 -3.140625 0.609375 -4.007812 0.609375 -4.96875 C 0.609375 -5.925781 0.8125 -6.789062 1.21875 -7.5625 C 1.632812 -8.332031 2.207031 -8.941406 2.9375 -9.390625 C 3.664062 -9.847656 4.488281 -10.078125 5.40625 -10.078125 C 6.320312 -10.078125 7.144531 -9.847656 7.875 -9.390625 C 8.601562 -8.941406 9.171875 -8.332031 9.578125 -7.5625 C 9.992188 -6.789062 10.203125 -5.925781 10.203125 -4.96875 Z M 8.734375 -4.96875 C 8.734375 -5.675781 8.59375 -6.316406 8.3125 -6.890625 C 8.03125 -7.460938 7.632812 -7.910156 7.125 -8.234375 C 6.625 -8.554688 6.050781 -8.71875 5.40625 -8.71875 C 4.757812 -8.71875 4.179688 -8.554688 3.671875 -8.234375 C 3.171875 -7.921875 2.78125 -7.476562 2.5 -6.90625 C 2.21875 -6.332031 2.078125 -5.6875 2.078125 -4.96875 C 2.078125 -4.257812 2.21875 -3.617188 2.5 -3.046875 C 2.78125 -2.472656 3.171875 -2.019531 3.671875 -1.6875 C 4.179688 -1.363281 4.757812 -1.203125 5.40625 -1.203125 C 6.050781 -1.203125 6.625 -1.363281 7.125 -1.6875 C 7.632812 -2.019531 8.03125 -2.472656 8.3125 -3.046875 C 8.59375 -3.617188 8.734375 -4.257812 8.734375 -4.96875 Z M 8.734375 -4.96875 "/></g></g></g></svg>